<?xml version="1.0" encoding="UTF-8"?> <svg xmlns="http://www.w3.org/2000/svg" width="201" height="45" viewBox="0 0 201 45" fill="none"><path d="M38.2271 24.2914C35.2883 24.2914 32.896 21.8734 32.896 18.9071C32.896 15.9367 35.2883 13.5227 38.2271 13.5227C41.1659 13.5227 43.5542 15.9408 43.5542 18.9071C43.5542 21.8734 41.1659 24.2914 38.2271 24.2914ZM38.2271 7.17285C31.8274 7.17285 26.6177 12.4385 26.6177 18.9071C26.6177 25.3756 31.8274 30.6372 38.2271 30.6372C44.6269 30.6372 49.8366 25.3715 49.8366 18.903C49.8366 12.4344 44.6269 7.17285 38.2271 7.17285Z" fill="#009066"></path><path d="M79.2739 7.18848C76.4767 7.18848 73.9387 8.31771 72.0766 10.1466C70.2146 8.31771 67.6765 7.18848 64.8794 7.18848C62.1916 7.18848 59.7386 8.23179 57.8967 9.94201H54.541V17.638V25.2521V29.0612H60.8194V25.2521V17.638C60.8194 15.3754 62.6409 13.5384 64.8754 13.5384C67.1139 13.5384 68.9314 15.3795 68.9314 17.638V29.0612H75.2097V17.638C75.2097 15.3754 77.0313 13.5384 79.2658 13.5384C81.5043 13.5384 83.3218 15.3795 83.3218 17.638V29.0612H89.6001V17.638C89.6123 11.8773 84.9733 7.18848 79.2739 7.18848Z" fill="#009066"></path><path d="M161.081 7.18848C158.394 7.18848 155.941 8.23179 154.099 9.94201H150.743V17.638V25.2521V29.0612H157.021V25.2521V17.638C157.021 15.3754 158.843 13.5384 161.077 13.5384C163.316 13.5384 165.133 15.3795 165.133 17.638V29.0612H171.412V17.638C171.42 11.8773 166.785 7.18848 161.081 7.18848Z" fill="#009066"></path><path d="M143.781 9.94238H137.502V29.0616H143.781V9.94238Z" fill="#009066"></path><path d="M140.456 0.0898438C138.558 0.0898438 137.02 1.64459 137.02 3.56347C137.02 5.47826 138.558 7.033 140.456 7.033C142.355 7.033 143.889 5.47826 143.889 3.56347C143.889 1.6405 142.351 0.0898438 140.456 0.0898438Z" fill="#009066"></path><path d="M120.25 7.18848C117.452 7.18848 114.914 8.31771 113.052 10.1466C111.19 8.31771 108.652 7.18848 105.855 7.18848C103.167 7.18848 100.714 8.23179 98.8723 9.94201H95.5166V17.638V25.2521V29.0612H101.795V25.2521V17.638C101.795 15.3754 103.617 13.5384 105.851 13.5384C108.09 13.5384 109.907 15.3795 109.907 17.638V29.0612H116.185V17.638C116.185 15.3754 118.007 13.5384 120.241 13.5384C122.48 13.5384 124.297 15.3795 124.297 17.638V29.0612H130.576V17.638C130.588 11.8773 125.953 7.18848 120.25 7.18848Z" fill="#009066"></path><path d="M11.0933 7.18848C9.42149 7.18848 7.83875 7.59353 6.43817 8.30953L6.16696 0.564453H0.754883V25.2521V29.0613H7.03322V17.638C7.03322 15.3754 8.85478 13.5384 11.0892 13.5384C13.3277 13.5384 15.1453 15.3795 15.1453 17.638V29.0613H21.4276V17.638C21.4276 11.8773 16.7928 7.18848 11.0933 7.18848Z" fill="#009066"></path><path d="M188.903 24.2914C185.964 24.2914 183.571 21.8734 183.571 18.9071C183.571 15.9367 185.964 13.5187 188.903 13.5187C191.841 13.5187 194.23 15.9367 194.23 18.9071C194.234 21.8734 191.841 24.2914 188.903 24.2914ZM200.512 9.94275H196.383C194.359 8.21617 191.752 7.17285 188.903 7.17285C182.503 7.17285 177.293 12.4385 177.293 18.9071C177.293 22.8594 179.236 26.3576 182.207 28.4851V30.6413H190.392C192.509 30.6413 194.23 32.3842 194.23 34.524C194.23 36.6639 192.509 38.4027 190.392 38.4027V44.7485C195.97 44.7485 200.512 40.162 200.512 34.52C200.512 31.5619 199.261 28.8942 197.27 27.0245C199.274 24.9133 200.512 22.0534 200.512 18.903V9.94275Z" fill="#009066"></path><path d="M18.2901 34.6213H3.8916L7.88286 30.7754H14.1248L18.2901 34.6213Z" fill="#EB7656"></path></svg> 